DataType=double
version=3
OpenSimVersion=4.5-2023-11-26-efcdfd3eb
endheader
time	EMG01_right_gast_med	EMG02_right_glut_max	EMG03_left_gast_med	EMG04_left_glut_max	EMG05_right_glut_med	EMG06_right_bic_fem	EMG07_right_rect_fem	EMG08_right_vast_lat	EMG09_right_vast_med	EMG10_right_tens_fasc_lat	EMG11_left_glut_med	EMG12_left_bic_fem	EMG13_left_rect_fem	EMG14_left_vast_lat	EMG15_left_vast_med	EMG16_left_tens_fasc_lat
2.51	-0.001098315645473878	0.123165515965508	0.1868915852097501	0.03004545947475025	0.02544061177688779	0.1117581503271877	0.02151061627407696	0.01819413449038766	0.002132163226072111	0.02345672297945074	0.09989487442148802	0.007170656837478682	0.07285125094320836	0.01230712486415713	0.02677714343740522	0.155549642851583
2.52	0.003625626424097687	0.117598802804403	0.1875437179361102	0.02852592682708053	0.02574172463816624	0.1168080045809959	0.02118537006683999	0.0193972726353328	0.003120071025024295	0.02376688050221607	0.09610478863667911	0.008304857056187087	0.07143181449263851	0.01224177828304126	0.02367183310391419	0.1458705497748908
2.53	0.008398139945845522	0.1125917359532826	0.1879044544640811	0.0270768882191356	0.02679473204864109	0.121815893082533	0.02110021430599174	0.02072581783078589	0.004534302798824419	0.0248646935330717	0.09226544377055119	0.009486458851396255	0.07003200329776861	0.01232593301208175	0.02092844949625921	0.1361109359145
2.54	0.01320601140419935	0.1082200214894087	0.1879318634385804	0.02572562054990297	0.02858241068135768	0.1267415167552274	0.02125573109651225	0.02216976678333102	0.006383032680485424	0.02676032565271806	0.08839281710155851	0.01068013738589518	0.06864259352219687	0.01254752684308588	0.01854392670193536	0.1263392289416674
2.55	0.01804022920461626	0.1045493280542611	0.1875853941012733	0.02450036484392012	0.03107898825878682	0.1315438350144871	0.02165004710862492	0.02371726159647698	0.008669547477137442	0.02945623423384424	0.08450429356849289	0.01185291886826043	0.06725521037786203	0.01289424440845195	0.01651140948804544	0.1166225791301712
2.56	0.02289519880727183	0.1016343848277368	0.1868271766382994	0.02342990516704687	0.03425039681835412	0.1361814438550506	0.02227886928492266	0.02535472805574137	0.01139204638309446	0.03294689453585145	0.08061833291514388	0.01297458533662198	0.0658624778486544	0.01335368916269616	0.01482057282318228	0.1070263165826912
2.57	0.0277679363262895	0.09951824184992689	0.1856232567034266	0.02254311169871035	0.03805461529258115	0.1406129573720674	0.02313554010727549	0.02706703837175475	0.01454349209429976	0.03721857383767367	0.07675410435639089	0.01401802523878571	0.06445813609208831	0.01391353569182002	0.01345796053977195	0.09761343355879282
2.58	0.03265726084301469	0.09823170395736601	0.1839447175449338	0.0218684560136302	0.04244210117196767	0.1447974019271535	0.024211111303469	0.02883769678020629	0.01811151805485614	0.04224916490196255	0.07293110123962239	0.01495952474439573	0.06303712831175209	0.01456165986599157	0.01240733843156917	0.08844409778907283
2.59	0.03756300494130449	0.09779294605989053	0.1817686527257009	0.02143350707187014	0.04735631080288601	0.1486946338956115	0.02549443534245431	0.03064904618525757	0.02207839626465018	0.0480080897724082	0.0691687497999082	0.01577899606416283	0.06159565921951353	0.01528624493089016	0.01165005716255419	0.07957520347163803
2.6	0.04248526206332794	0.09820731378465124	0.1790789635068259	0.02126441659913623	0.05273430759477412	0.1522657898473741	0.02697227455767096	0.03248249358638772	0.02642106970068057	0.05445628593520223	0.06548602634643358	0.01646014093105555	0.06013122733215923	0.01607586263255843	0.01116542041939193	0.07105996667586645
2.61	0.0474236883757221	0.09946730988279712	0.1758669645972865	0.02138540261700591	0.05850745700588719	0.1554737728514103	0.02862942815619584	0.03431875141501133	0.0311112529835932	0.0615462868729122	0.06190109615846809	0.01699054942374028	0.05864263303464044	0.01691952967691744	0.01093105379517134	0.06294757156041539
2.62	0.05237687597317999	0.1015527633683082	0.1721317895852238	0.02181824011229311	0.06460220657107868	0.1582837716613822	0.030448877785895	0.03613809127218464	0.03611560447626924	0.06922240812162153	0.05843098540281476	0.01736173599428967	0.05712996394895852	0.01780674094345465	0.01092326996756317	0.05528287331908792
2.63	0.05734181328934859	0.1044311754550012	0.1678805936754881	0.02258176825223901	0.07094094828978688	0.1606638024993868	0.03241195281185023	0.03792060615817305	0.04139597246626431	0.07742104860251323	0.0550912948857319	0.01756911574261161	0.05559455901680459	0.01872748185178472	0.01111742585039989	0.04810616273969609
2.64	0.06231344735828571	0.108058234377075	0.1631285557384431	0.02369142391055222	0.07744295925781719	0.1625852577827939	0.03449851676373714	0.03964647737635844	0.04690971733452353	0.08607111552356239	0.05189596183291217	0.01761192490718743	0.05403895261319229	0.01967222318826862	0.01148826764442243	0.04145299552903502
2.65	0.06728436099464902	0.1123784900495813	0.1578986833166957	0.02515881136791252	0.08402541443396369	0.1640234433136974	0.03668717616211176	0.04129624282256211	0.05261011060642153	0.09509457942622157	0.04885707360200602	0.01749309042939067	0.05246679964934026	0.02063190245186634	0.01201026021273184	0.03535408742752018
2.66	0.07224457598277544	0.1173261787198064	0.1522214255299693	0.02699131790950522	0.09060446288380168	0.1649580843140643	0.03895551201151275	0.0428510639281077	0.0584468105177912	0.1044071638256951	0.04598473544386723	0.01721905417621298	0.0508827824336676	0.02159789617748324	0.01265789793155592	0.02983527394821578
2.67	0.07718149087026603	0.1228261870469833	0.1461341041088996	0.02919178469111566	0.09709635578232741	0.1653737796851439	0.04128033293014905	0.04429298879461025	0.06436641209356879	0.1139191713423396	0.04328699290576834	0.01679955776888723	0.04929250093744587	0.02256198765920801	0.01340599494472196	0.02491753144004151
2.68	0.08207995886616215	0.1287951446441862	0.1396801826848703	0.03175824159225303	0.1034186110428348	0.1652603830410554	0.04363794750621493	0.04560520907654991	0.0703130675800083	0.1235364452124382	0.04076980794209131	0.01624739398094722	0.04770235015950236	0.02351633416113133	0.01422995348737327	0.02061705418255473
2.69	0.08692250770335062	0.1351426339102232	0.1329084041991381	0.03468371377018246	0.1094911960164595	0.164613290578364	0.04600445227176513	0.04677230803607846	0.07622917047338859	0.1331614614572395	0.03843708628317015	0.01557813048717186	0.04611939041791827	0.02445343731138513	0.01510600964090581	0.01694538056711807
2.7	0.09168969929890906	0.1417725052190932	0.125871830998574	0.0379561063770878	0.1152377066979632	0.1634336214527208	0.04835603083601989	0.04778049685869018	0.0820560937444344	0.1426945426404142	0.03629075227013834	0.01480981141541482	0.04455121739695094	0.02536612003781064	0.01601145644517579	0.0139095602542321
2.71	0.09636062279100024	0.1485842835905137	0.1186268214287369	0.04155817255203479	0.1205865195047926	0.161728284994916	0.05066925925755808	0.04861783572601411	0.08773497065166309	0.1520351790727788	0.03433086622324224	0.01396264163545056	0.04300583829582645	0.02624751303144841	0.01692484461518072	0.01151235349440588
2.72	0.1009135101590902	0.1554746500795791	0.1112319732740764	0.04546756840856085	0.1254718898977584	0.1595099378758855	0.05292141248050351	0.04927443533069444	0.0932075050361524	0.1610834377942435	0.03255577837741357	0.01305865802549469	0.04149155890243884	0.02709105321553729	0.01782616126678807	0.009752453502702069
2.73	0.1053264592275676	0.1623389782389227	0.1037470609250996	0.04965699727131379	0.1298349707339387	0.1567968407433034	0.05509076631648635	0.04974263350159394	0.0984167971676897	0.1697414340633641	0.03096231246213109	0.01212139119124833	0.04001688451404038	0.02789049608277664	0.01869698719777559	0.008624722928953754
2.74	0.1095782445118091	0.1690729038422566	0.09623199086820643	0.05409444384787217	0.1336247223145509	0.1536126266291903	0.05715688880542611	0.05001714043515612	0.1033081707649845	0.1779148345704179	0.029545971261588	0.01117552040480758	0.03859043587768334	0.02863994311474323	0.01952063337262316	0.008120436078934295
2.75	0.1136491923591631	0.175573904339711	0.08874579864633371	0.05874349741756692	0.1367986860218667	0.1499859925336196	0.05910091386135877	0.05009514502566439	0.1078299861251791	0.1855143558991818	0.02830115618727787	0.01024652400058731	0.03722087994760055	0.02933388483167142	0.02028225722381522	0.008227519493500261
2.76	0.1175220936701058	0.1817428622705552	0.08134570872786408	0.0635637615452391	0.1393235951123241	0.1459503226354231	0.06090578931537269	0.04997637459838074	0.1119344228294392	0.1924572155377607	0.02722139319080816	0.009360327185811344	0.03591687423211379	0.02996725934097595	0.02096895925242448	0.00893078468425604
2.77	0.1211831255696224	0.1874855835661	0.07408627608262984	0.06851134629419812	0.1411758006195028	0.1415432491380129	0.06255649155537735	0.04966310171997228	0.1155782136110311	0.1986684865044633	0.02629955821825635	0.008542949167747244	0.03468702285977492	0.03053552558674344	0.02156986028095019	0.01021214824896532
2.78	0.1246227527172286	0.1927142380799968	0.06701862479472619	0.07353943745424096	0.1423414976346176	0.136806156496572	0.0640402005238698	0.04916009511929119	0.1187233100020964	0.2040823028671202	0.02552809652949805	0.007820151558537668	0.0335398423810255	0.03103474984771745	0.02207615952106355	0.01205083616033142
2.79	0.1278365793077818	0.1973486874054479	0.06018979510202403	0.07859893594055418	0.1428167463795453	0.1317836364556391	0.06534643164252063	0.04847451656093445	0.1213374612828625	0.2086428657033344	0.02489923107477723	0.007217090097070395	0.03248373566530598	0.03146170332506392	0.02248117323504945	0.01442357056157317
2.8	0.1308261240997947	0.2013176653340266	0.05364220618112852	0.0836391591004549	0.1426072915648383	0.1265229033707894	0.06646712423570539	0.04761577005462663	0.1233946907275163	0.2123052093861339	0.02440515553111936	0.006757971816368354	0.0315269726002177	0.03181396785469855	0.0227803532305673	0.01730473885256548
2.81	0.1335994924028481	0.2045597796278233	0.047413238135367	0.08860859396340587	0.1417281910346805	0.1210731800648588	0.06739668822088177	0.04659531228785619	0.1248756565214205	0.2150357052565255	0.02403820783611263	0.006465719923306506	0.03067767618157338	0.03209004589786243	0.02297128396282525	0.02066654627200444
2.82	0.1361719196031483	0.2070243104334149	0.04153493326473412	0.09345569048332204	0.1402032703055454	0.1154850634936353	0.06813201197565234	0.04542643328525636	0.1257678890284747	0.2168123000531749	0.02379102050527564	0.006361648848216216	0.02994381196597002	0.03228947007627771	0.02305365684174276	0.0244791545857992
2.83	0.138566159876175	0.2086717904289123	0.03603381388991721	0.09812968070112198	0.1380644238398334	0.1098098777427121	0.06867243460710115	0.04412401497580246	0.1260659012061201	0.2176245053684384	0.0236566448096892	0.006465152123494492	0.02933317811326242	0.03241290669124902	0.02302922052657578	0.02871081082064723
2.84	0.1408126921722234	0.2094743626412855	0.03093081169290841	0.1025814074895317	0.1353507872216757	0.1040990207990585	0.06901968545166873	0.04270427363459282	0.1257711740279505	0.217473168408474	0.02362864689587389	0.006793405942645391	0.02885339272829614	0.0324622469148946	0.02290170650217673	0.03332797111416658
2.85	0.1429497148824732	0.2094159210869421	0.02624130160315882	0.1067641439725146	0.1321078066393696	0.09840331155858301	0.06917779258586797	0.04118449068078981	0.1248920229367714	0.2163700620939498	0.0237011749248902	0.007361091438696255	0.02851187492660648	0.03244067861305619	0.02267672995798982	0.03829542546693069
2.86	0.1450229017786721	0.2084920457790413	0.02197523159673269	0.1106343819740663	0.1283862329367877	0.09277234374660578	0.06915296091420368	0.03958273541251904	0.1234433541103737	0.2143373340961294	0.02386899713965565	0.008180138868510359	0.02831581577051555	0.03235273113207629	0.02236166673056654	0.04357642927417692
2.87	0.1470848957738608	0.2067097472175459	0.0181373383076723	0.1141525657345535	0.1242410672470183	0.08725385314653952	0.0689534198572429	0.0379175830235904	0.1214463202972327	0.2114068506147974	0.02412751143780785	0.009259496947165515	0.02827213490852017	0.03220428530834506	0.02196550759126057	0.04913284696094867
